<svg width="300" height="29" viewBox="0 0 349 29" fill="none" xmlns="http://www.w3.org/2000/svg"><path d="M11.784 7.4h-7.2L6.117.2h7.2l-1.533 7.2zM25.2 29h-9L9.69 17.3 7.2 29H0l3.825-18h7.2L22.317.2h9L16.566 14.6 25.2 29zM40.577 7.4h-7.2L34.91.2h7.2l-1.533 7.2zM53.993 29h-25.2l3.825-18h7.2l-2.292 10.8h18L53.993 29zm28.793 0h-7.2l2.292-10.8h-10.8L64.786 29h-7.2l3.825-18h18l.76-3.6h-18c.346-1.622.679-2.775.998-3.46.553-1.19 1.364-2.08 2.433-2.671C66.895.556 68.662.2 70.903.2h10.8c2.325 0 3.975.384 4.95 1.153.797.628 1.195 1.585 1.195 2.869 0 .469-.046.984-.14 1.547-.038.234-.15.778-.338 1.631L82.786 29zm33.377-21.6h-25.2c.44-2.063 1.299-3.713 2.574-4.95C95.084.95 97.137.2 99.697.2h10.799c2.325 0 3.975.384 4.95 1.153.797.628 1.195 1.585 1.195 2.869 0 .469-.046.984-.14 1.547-.038.234-.15.778-.338 1.631zm-3.051 14.4c-.347 1.622-.68 2.775-.999 3.46-.553 1.19-1.364 2.08-2.433 2.671-1.293.713-3.06 1.069-5.301 1.069h-10.8c-2.325 0-3.975-.384-4.95-1.153-.797-.628-1.195-1.585-1.195-2.869 0-.469.047-.984.14-1.547.038-.234.15-.778.338-1.631h18l.759-3.6h-10.8c-2.325 0-3.975-.384-4.95-1.153-.797-.628-1.195-1.585-1.195-2.869 0-.431.051-.947.154-1.547.038-.225.146-.768.324-1.631h18c2.325 0 3.975.384 4.95 1.153.797.628 1.195 1.585 1.195 2.869 0 .469-.047.984-.14 1.547-.038.234-.15.778-.338 1.631l-.759 3.6zm31.844-14.4h-25.2c.441-2.063 1.299-3.713 2.574-4.95 1.547-1.5 3.6-2.25 6.159-2.25h10.8c2.325 0 3.975.384 4.95 1.153.797.628 1.195 1.585 1.195 2.869 0 .469-.047.984-.14 1.547-.038.234-.15.778-.338 1.631zm-3.051 14.4c-.347 1.622-.68 2.775-.999 3.46-.553 1.19-1.364 2.08-2.433 2.671-1.293.713-3.06 1.069-5.301 1.069h-10.8c-2.325 0-3.975-.384-4.95-1.153-.797-.628-1.195-1.585-1.195-2.869 0-.469.046-.984.14-1.547.038-.234.15-.778.338-1.631h18l.759-3.6h-10.8c-2.325 0-3.975-.384-4.95-1.153-.797-.628-1.195-1.585-1.195-2.869 0-.431.051-.947.154-1.547.038-.225.146-.768.324-1.631h18c2.325 0 3.975.384 4.95 1.153.797.628 1.195 1.585 1.195 2.869 0 .469-.047.984-.14 1.547-.038.234-.15.778-.338 1.631l-.759 3.6zm31.844-14.4h-25.2l1.533-7.2h25.2l-1.533 7.2zM169.165 29h-25.2l3.825-18h18l-1.533 7.2h-10.8l-.759 3.6h18l-1.533 7.2zm28.793 0h-7.2l4.584-21.6h-18l1.533-7.2h18c2.325 0 3.975.384 4.95 1.153.797.628 1.195 1.585 1.195 2.869 0 .469-.047.984-.14 1.547-.038.234-.15.778-.338 1.631L197.958 29zm-18 0h-7.2l3.825-18h7.2l-3.825 18zm51.377-21.6h-25.2c.441-2.063 1.299-3.713 2.574-4.95 1.546-1.5 3.6-2.25 6.159-2.25h10.8c2.325 0 3.975.384 4.95 1.153.797.628 1.195 1.585 1.195 2.869 0 .469-.047.984-.14 1.547-.038.234-.15.778-.338 1.631zm-3.051 14.4c-.347 1.622-.68 2.775-.999 3.46-.553 1.19-1.364 2.08-2.433 2.671-1.293.713-3.061 1.069-5.301 1.069h-10.8c-2.325 0-3.975-.384-4.95-1.153-.797-.628-1.196-1.585-1.196-2.869 0-.469.047-.984.141-1.547.038-.234.15-.778.338-1.631h18l.759-3.6h-10.8c-2.325 0-3.975-.384-4.95-1.153-.797-.628-1.195-1.585-1.195-2.869 0-.431.051-.947.154-1.547.038-.225.146-.768.324-1.631h18c2.325 0 3.975.384 4.95 1.153.797.628 1.195 1.585 1.195 2.869 0 .469-.047.984-.141 1.547-.037.234-.15.778-.337 1.631l-.759 3.6zM259.369 11c-.385 1.8-.736 3.047-1.055 3.74-.534 1.154-1.336 1.998-2.405 2.532-1.237.619-2.995.928-5.273.928h-10.8L237.544 29h-7.2l3.825-18h18l.759-3.6h-18l1.533-7.2h18c2.325 0 3.975.384 4.95 1.153.797.628 1.195 1.585 1.195 2.869 0 .469-.047.984-.14 1.547-.038.234-.15.778-.338 1.631l-.759 3.6zm29.552-3.6h-25.2l1.533-7.2h25.2l-1.533 7.2zM284.337 29h-25.2l3.825-18h18l-1.533 7.2h-10.8l-.759 3.6h18l-1.533 7.2zm28.793 0h-7.2l2.292-10.8h-10.8L295.13 29h-7.2l3.825-18h18l.759-3.6h-18c.347-1.622.68-2.775.999-3.46.553-1.19 1.364-2.08 2.432-2.671C297.239.556 299.006.2 301.247.2h10.8c2.325 0 3.975.384 4.95 1.153.797.628 1.195 1.585 1.195 2.869 0 .469-.047.984-.14 1.547-.038.234-.15.778-.338 1.631L313.13 29zm15.377-21.6h-7.2L322.84.2h7.2l-1.533 7.2zM341.923 29h-9l-6.511-11.7-2.489 11.7h-7.2l3.825-18h7.2L339.04.2h9l-14.752 14.4 8.635 14.4z" fill="#F2590C"/></svg>